# Blender 3.4.1
# www.blender.org
mtllib barel.mtl
o Цилиндр
v 0.000000 0.050000 -0.300000
v 0.000000 0.850000 -0.300000
v 0.114805 0.050000 -0.277164
v 0.114805 0.850000 -0.277164
v 0.212132 0.050000 -0.212132
v 0.212132 0.850000 -0.212132
v 0.277164 0.050000 -0.114805
v 0.277164 0.850000 -0.114805
v 0.300000 0.050000 0.000000
v 0.300000 0.850000 0.000000
v 0.277164 0.050000 0.114805
v 0.277164 0.850000 0.114805
v 0.212132 0.050000 0.212132
v 0.212132 0.850000 0.212132
v 0.114805 0.050000 0.277164
v 0.114805 0.850000 0.277164
v 0.000000 0.050000 0.300000
v 0.000000 0.850000 0.300000
v -0.114805 0.050000 0.277164
v -0.114805 0.850000 0.277164
v -0.212132 0.050000 0.212132
v -0.212132 0.850000 0.212132
v -0.277164 0.050000 0.114805
v -0.277164 0.850000 0.114805
v -0.300000 0.050000 0.000000
v -0.300000 0.850000 0.000000
v -0.277164 0.050000 -0.114805
v -0.277164 0.850000 -0.114805
v -0.212132 0.050000 -0.212132
v -0.212132 0.850000 -0.212132
v -0.114805 0.050000 -0.277164
v -0.114805 0.850000 -0.277164
v 0.095296 0.900000 -0.230065
v 0.000000 0.900000 -0.249020
v -0.095296 0.900000 -0.230065
v -0.176084 0.900000 -0.176084
v -0.230065 0.900000 -0.095296
v -0.249020 0.900000 0.000000
v -0.230065 0.900000 0.095296
v -0.176084 0.900000 0.176084
v -0.095296 0.900000 0.230065
v 0.000000 0.900000 0.249020
v 0.095296 0.900000 0.230065
v 0.176084 0.900000 0.176084
v 0.230065 0.900000 0.095296
v 0.249020 0.900000 0.000000
v 0.230065 0.900000 -0.095296
v 0.176084 0.900000 -0.176084
v 0.000000 0.000000 -0.249020
v 0.095296 0.000000 -0.230065
v 0.176084 0.000000 -0.176084
v 0.230065 0.000000 -0.095296
v 0.249020 0.000000 0.000000
v 0.230065 0.000000 0.095296
v 0.176084 0.000000 0.176084
v 0.095296 0.000000 0.230065
v 0.000000 0.000000 0.249020
v -0.095296 0.000000 0.230065
v -0.176084 0.000000 0.176084
v -0.230065 0.000000 0.095296
v -0.249020 0.000000 0.000000
v -0.230065 0.000000 -0.095296
v -0.176084 0.000000 -0.176084
v -0.095296 0.000000 -0.230065
v 0.095296 0.880000 -0.230065
v -0.000000 0.880000 -0.249020
v -0.095296 0.880000 -0.230065
v -0.176084 0.880000 -0.176084
v -0.230065 0.880000 -0.095296
v -0.249020 0.880000 0.000000
v -0.230065 0.880000 0.095296
v -0.176084 0.880000 0.176084
v -0.095296 0.880000 0.230065
v -0.000000 0.880000 0.249020
v 0.095296 0.880000 0.230065
v 0.176084 0.880000 0.176084
v 0.230065 0.880000 0.095296
v 0.249020 0.880000 0.000000
v 0.230065 0.880000 -0.095296
v 0.176084 0.880000 -0.176084
v 0.000000 0.020000 -0.249020
v 0.095296 0.020000 -0.230065
v 0.176084 0.020000 -0.176084
v 0.230065 0.020000 -0.095296
v 0.249020 0.020000 0.000000
v 0.230065 0.020000 0.095296
v 0.176084 0.020000 0.176084
v 0.095296 0.020000 0.230065
v 0.000000 0.020000 0.249020
v -0.095296 0.020000 0.230065
v -0.176084 0.020000 0.176084
v -0.230065 0.020000 0.095296
v -0.249020 0.020000 0.000000
v -0.230065 0.020000 -0.095296
v -0.176084 0.020000 -0.176084
v -0.095296 0.020000 -0.230065
v 0.120607 0.880000 0.050830
v 0.103115 0.880000 0.047351
v 0.085624 0.880000 0.050830
v 0.070796 0.880000 0.060738
v 0.060888 0.880000 0.075567
v 0.057408 0.880000 0.093058
v 0.060888 0.880000 0.110549
v 0.070796 0.880000 0.125378
v 0.085624 0.880000 0.135286
v 0.103115 0.880000 0.138765
v 0.120607 0.880000 0.135286
v 0.135435 0.880000 0.125378
v 0.145343 0.880000 0.110549
v 0.148822 0.880000 0.093058
v 0.145343 0.880000 0.075567
v 0.135435 0.880000 0.060738
v 0.103115 0.900000 0.047351
v 0.120607 0.900000 0.050830
v 0.135435 0.900000 0.060738
v 0.085624 0.900000 0.050830
v 0.070796 0.900000 0.060738
v 0.060888 0.900000 0.075567
v 0.057408 0.900000 0.093058
v 0.060888 0.900000 0.110549
v 0.070796 0.900000 0.125378
v 0.085624 0.900000 0.135286
v 0.103115 0.900000 0.138765
v 0.120607 0.900000 0.135286
v 0.135435 0.900000 0.125378
v 0.145343 0.900000 0.110549
v 0.148822 0.900000 0.093058
v 0.145343 0.900000 0.075567
v 0.000000 0.000000 -0.300000
v 0.114805 0.000000 -0.277164
v 0.114805 0.900000 -0.277164
v 0.000000 0.900000 -0.300000
v 0.212132 0.000000 -0.212132
v 0.212132 0.900000 -0.212132
v 0.277164 0.000000 -0.114805
v 0.277164 0.900000 -0.114805
v 0.300000 0.000000 0.000000
v 0.300000 0.900000 0.000000
v 0.277164 0.000000 0.114805
v 0.277164 0.900000 0.114805
v 0.212132 0.000000 0.212132
v 0.212132 0.900000 0.212132
v 0.114805 0.000000 0.277164
v 0.114805 0.900000 0.277164
v 0.000000 0.000000 0.300000
v 0.000000 0.900000 0.300000
v -0.114805 0.000000 0.277164
v -0.114805 0.900000 0.277164
v -0.212132 0.000000 0.212132
v -0.212132 0.900000 0.212132
v -0.277164 0.000000 0.114805
v -0.277164 0.900000 0.114805
v -0.300000 0.000000 0.000000
v -0.300000 0.900000 0.000000
v -0.277164 0.000000 -0.114805
v -0.277164 0.900000 -0.114805
v -0.212132 0.000000 -0.212132
v -0.212132 0.900000 -0.212132
v -0.114805 0.000000 -0.277164
v -0.114805 0.900000 -0.277164
v 0.000000 0.050000 -0.285000
v 0.000000 0.850000 -0.285000
v 0.109065 0.850000 -0.263306
v 0.109065 0.050000 -0.263306
v 0.201525 0.850000 -0.201525
v 0.201525 0.050000 -0.201525
v 0.263306 0.850000 -0.109065
v 0.263306 0.050000 -0.109065
v 0.285000 0.850000 -0.000000
v 0.285000 0.050000 -0.000000
v 0.263306 0.850000 0.109065
v 0.263306 0.050000 0.109065
v 0.201525 0.850000 0.201525
v 0.201525 0.050000 0.201525
v 0.109065 0.850000 0.263306
v 0.109065 0.050000 0.263306
v 0.000000 0.850000 0.285000
v 0.000000 0.050000 0.285000
v -0.109065 0.850000 0.263306
v -0.109065 0.050000 0.263306
v -0.201525 0.850000 0.201525
v -0.201525 0.050000 0.201525
v -0.263306 0.850000 0.109065
v -0.263306 0.050000 0.109065
v -0.285000 0.850000 -0.000000
v -0.285000 0.050000 -0.000000
v -0.263306 0.850000 -0.109065
v -0.263306 0.050000 -0.109065
v -0.201525 0.850000 -0.201525
v -0.201525 0.050000 -0.201525
v -0.109065 0.850000 -0.263306
v -0.109065 0.050000 -0.263306
vn -0.0000 1.0000 -0.0000
vn -0.0000 -1.0000 -0.0000
vn 0.9808 -0.0000 0.1951
vn -0.1951 -0.0000 0.9808
vn 0.1951 -0.0000 0.9808
vn 0.5556 -0.0000 0.8315
vn 0.8315 -0.0000 0.5556
vn 0.9808 -0.0000 -0.1951
vn 0.8315 -0.0000 -0.5556
vn 0.5556 -0.0000 -0.8315
vn 0.1951 -0.0000 -0.9808
vn -0.1951 -0.0000 -0.9808
vn -0.5556 -0.0000 -0.8315
vn -0.8315 -0.0000 -0.5556
vn -0.9808 -0.0000 -0.1951
vn -0.9808 -0.0000 0.1951
vn -0.8315 -0.0000 0.5556
vn -0.5556 -0.0000 0.8315
vt 0.000000 0.527778
vt 1.000000 0.527778
vt 1.000000 0.972222
vt 0.000000 0.972222
vt 0.937500 0.527778
vt 0.937500 0.972222
vt 0.875000 0.527778
vt 0.875000 0.972222
vt 0.812500 0.527778
vt 0.812500 0.972222
vt 0.750000 0.527778
vt 0.750000 0.972222
vt 0.687500 0.527778
vt 0.687500 0.972222
vt 0.625000 0.527778
vt 0.625000 0.972222
vt 0.562500 0.527778
vt 0.562500 0.972222
vt 0.500000 0.527778
vt 0.500000 0.972222
vt 0.437500 0.527778
vt 0.437500 0.972222
vt 0.375000 0.527778
vt 0.375000 0.972222
vt 0.312500 0.527778
vt 0.312500 0.972222
vt 0.250000 0.527778
vt 0.250000 0.972222
vt 0.187500 0.527778
vt 0.187500 0.972222
vt 0.125000 0.527778
vt 0.125000 0.972222
vt 0.062500 0.527778
vt 0.062500 0.972222
vt 0.326237 0.434052
vt 0.250000 0.449216
vt 0.173763 0.434052
vt 0.109133 0.390867
vt 0.065948 0.326237
vt 0.050784 0.250000
vt 0.065948 0.173763
vt 0.109133 0.109133
vt 0.173763 0.065948
vt 0.250000 0.050784
vt 0.326237 0.065948
vt 0.390867 0.109133
vt 0.434052 0.173763
vt 0.449216 0.250000
vt 0.434052 0.326237
vt 0.390867 0.390867
vt 0.750000 0.449216
vt 0.826237 0.434052
vt 0.890867 0.390867
vt 0.934052 0.326237
vt 0.949216 0.250000
vt 0.934052 0.173763
vt 0.890867 0.109133
vt 0.826237 0.065948
vt 0.750000 0.050784
vt 0.673763 0.065948
vt 0.609133 0.109133
vt 0.565948 0.173763
vt 0.550784 0.250000
vt 0.565948 0.326237
vt 0.609133 0.390867
vt 0.673763 0.434052
vt 0.326237 0.434052
vt 0.250000 0.449216
vt 0.173763 0.434052
vt 0.109133 0.390867
vt 0.065948 0.326237
vt 0.050784 0.250000
vt 0.065948 0.173763
vt 0.109133 0.109133
vt 0.173763 0.065948
vt 0.250000 0.050784
vt 0.326237 0.065948
vt 0.390867 0.109133
vt 0.434052 0.173763
vt 0.449216 0.250000
vt 0.434052 0.326237
vt 0.390867 0.390867
vt 0.750000 0.449216
vt 0.826237 0.434052
vt 0.890867 0.390867
vt 0.934052 0.326237
vt 0.949216 0.250000
vt 0.934052 0.173763
vt 0.890867 0.109133
vt 0.826237 0.065948
vt 0.750000 0.050784
vt 0.673763 0.065948
vt 0.609133 0.109133
vt 0.565948 0.173763
vt 0.550784 0.250000
vt 0.565948 0.326237
vt 0.609133 0.390867
vt 0.673763 0.434052
vt 0.259167 0.272131
vt 0.250000 0.273955
vt 0.240833 0.272131
vt 0.233061 0.266939
vt 0.227869 0.259167
vt 0.226045 0.250000
vt 0.227869 0.240833
vt 0.233061 0.233062
vt 0.240833 0.227869
vt 0.250000 0.226045
vt 0.259167 0.227869
vt 0.266939 0.233061
vt 0.272131 0.240833
vt 0.273955 0.250000
vt 0.272131 0.259167
vt 0.266939 0.266939
vt 0.250000 0.273955
vt 0.259167 0.272131
vt 0.266939 0.266939
vt 0.240833 0.272131
vt 0.233061 0.266939
vt 0.227869 0.259167
vt 0.226045 0.250000
vt 0.227869 0.240833
vt 0.233061 0.233062
vt 0.240833 0.227869
vt 0.250000 0.226045
vt 0.259167 0.227869
vt 0.266939 0.233061
vt 0.272131 0.240833
vt 0.273955 0.250000
vt 0.272131 0.259167
vt 0.750000 0.490000
vt 1.000000 0.500000
vt 0.000000 0.500000
vt 0.841844 0.471731
vt 0.937500 0.500000
vt 0.341844 0.471731
vt 0.937500 1.000000
vt 0.250000 0.490000
vt 1.000000 1.000000
vt 0.000000 1.000000
vt 0.919706 0.419706
vt 0.875000 0.500000
vt 0.419706 0.419706
vt 0.875000 1.000000
vt 0.971731 0.341844
vt 0.812500 0.500000
vt 0.471731 0.341844
vt 0.812500 1.000000
vt 0.990000 0.250000
vt 0.750000 0.500000
vt 0.490000 0.250000
vt 0.750000 1.000000
vt 0.971731 0.158156
vt 0.687500 0.500000
vt 0.471731 0.158156
vt 0.687500 1.000000
vt 0.919706 0.080294
vt 0.625000 0.500000
vt 0.419706 0.080294
vt 0.625000 1.000000
vt 0.841844 0.028269
vt 0.562500 0.500000
vt 0.341844 0.028269
vt 0.562500 1.000000
vt 0.750000 0.010000
vt 0.500000 0.500000
vt 0.250000 0.010000
vt 0.500000 1.000000
vt 0.658156 0.028269
vt 0.437500 0.500000
vt 0.158156 0.028269
vt 0.437500 1.000000
vt 0.580294 0.080294
vt 0.375000 0.500000
vt 0.080294 0.080294
vt 0.375000 1.000000
vt 0.528269 0.158156
vt 0.312500 0.500000
vt 0.028269 0.158156
vt 0.312500 1.000000
vt 0.510000 0.250000
vt 0.250000 0.500000
vt 0.010000 0.250000
vt 0.250000 1.000000
vt 0.528269 0.341844
vt 0.187500 0.500000
vt 0.028269 0.341844
vt 0.187500 1.000000
vt 0.580294 0.419706
vt 0.125000 0.500000
vt 0.080294 0.419706
vt 0.125000 1.000000
vt 0.658156 0.471731
vt 0.062500 0.500000
vt 0.158156 0.471731
vt 0.062500 1.000000
vt 0.000000 0.527778
vt 1.000000 0.527778
vt 1.000000 0.972222
vt 0.000000 0.972222
vt 0.937500 0.972222
vt 0.937500 0.527778
vt 0.875000 0.972222
vt 0.875000 0.527778
vt 0.812500 0.972222
vt 0.812500 0.527778
vt 0.750000 0.972222
vt 0.750000 0.527778
vt 0.687500 0.972222
vt 0.687500 0.527778
vt 0.625000 0.972222
vt 0.625000 0.527778
vt 0.562500 0.972222
vt 0.562500 0.527778
vt 0.500000 0.972222
vt 0.500000 0.527778
vt 0.437500 0.972222
vt 0.437500 0.527778
vt 0.375000 0.972222
vt 0.375000 0.527778
vt 0.312500 0.972222
vt 0.312500 0.527778
vt 0.250000 0.972222
vt 0.250000 0.527778
vt 0.187500 0.972222
vt 0.187500 0.527778
vt 0.125000 0.972222
vt 0.125000 0.527778
vt 0.062500 0.972222
vt 0.062500 0.527778
s 0
f 9/11/1 7/9/1 168/206/1 170/208/1
f 20/22/2 22/24/2 181/219/2 179/217/2
f 6/8/2 8/10/2 167/205/2 165/203/2
f 21/23/1 19/21/1 180/218/1 182/220/1
f 32/34/2 2/4/2 162/200/2 191/229/2
f 7/9/1 5/7/1 166/204/1 168/206/1
f 18/20/2 20/22/2 179/217/2 177/215/2
f 1/1/1 31/33/1 192/230/1 161/197/1
f 4/6/2 6/8/2 165/203/2 163/201/2
f 19/21/1 17/19/1 178/216/1 180/218/1
f 30/32/2 32/34/2 191/229/2 189/227/2
f 5/7/1 3/5/1 164/202/1 166/204/1
f 16/18/2 18/20/2 177/215/2 175/213/2
f 31/33/1 29/31/1 190/228/1 192/230/1
f 2/3/2 4/6/2 163/201/2 162/199/2
f 17/19/1 15/17/1 176/214/1 178/216/1
f 131/136/1 132/138/1 34/36/1 33/35/1
f 132/138/1 160/195/1 35/37/1 34/36/1
f 160/195/1 158/191/1 36/38/1 35/37/1
f 158/191/1 156/187/1 37/39/1 36/38/1
f 156/187/1 154/183/1 38/40/1 37/39/1
f 154/183/1 152/179/1 39/41/1 38/40/1
f 152/179/1 150/175/1 40/42/1 39/41/1
f 150/175/1 148/171/1 41/43/1 40/42/1
f 148/171/1 146/167/1 42/44/1 41/43/1
f 146/167/1 144/163/1 43/45/1 42/44/1
f 144/163/1 142/159/1 44/46/1 43/45/1
f 142/159/1 140/155/1 45/47/1 44/46/1
f 140/155/1 138/151/1 46/48/1 45/47/1
f 138/151/1 136/147/1 47/49/1 46/48/1
f 136/147/1 134/143/1 48/50/1 47/49/1
f 134/143/1 131/136/1 33/35/1 48/50/1
f 129/131/2 130/134/2 50/52/2 49/51/2
f 130/134/2 133/141/2 51/53/2 50/52/2
f 133/141/2 135/145/2 52/54/2 51/53/2
f 135/145/2 137/149/2 53/55/2 52/54/2
f 137/149/2 139/153/2 54/56/2 53/55/2
f 139/153/2 141/157/2 55/57/2 54/56/2
f 141/157/2 143/161/2 56/58/2 55/57/2
f 143/161/2 145/165/2 57/59/2 56/58/2
f 145/165/2 147/169/2 58/60/2 57/59/2
f 147/169/2 149/173/2 59/61/2 58/60/2
f 149/173/2 151/177/2 60/62/2 59/61/2
f 151/177/2 153/181/2 61/63/2 60/62/2
f 153/181/2 155/185/2 62/64/2 61/63/2
f 155/185/2 157/189/2 63/65/2 62/64/2
f 157/189/2 159/193/2 64/66/2 63/65/2
f 159/193/2 129/131/2 49/51/2 64/66/2
f 109/111/3 110/112/3 127/129/3 126/128/3
f 34/36/4 66/68/4 65/67/4 33/35/4
f 35/37/5 67/69/5 66/68/5 34/36/5
f 36/38/6 68/70/6 67/69/6 35/37/6
f 37/39/7 69/71/7 68/70/7 36/38/7
f 38/40/3 70/72/3 69/71/3 37/39/3
f 39/41/8 71/73/8 70/72/8 38/40/8
f 40/42/9 72/74/9 71/73/9 39/41/9
f 41/43/10 73/75/10 72/74/10 40/42/10
f 42/44/11 74/76/11 73/75/11 41/43/11
f 43/45/12 75/77/12 74/76/12 42/44/12
f 44/46/13 76/78/13 75/77/13 43/45/13
f 45/47/14 77/79/14 76/78/14 44/46/14
f 46/48/15 78/80/15 77/79/15 45/47/15
f 47/49/16 79/81/16 78/80/16 46/48/16
f 48/50/17 80/82/17 79/81/17 47/49/17
f 33/35/18 65/67/18 80/82/18 48/50/18
f 81/83/2 82/84/2 83/85/2 84/86/2 85/87/2 86/88/2 87/89/2 88/90/2 89/91/2 90/92/2 91/93/2 92/94/2 93/95/2 94/96/2 95/97/2 96/98/2
f 50/52/4 82/84/4 81/83/4 49/51/4
f 51/53/18 83/85/18 82/84/18 50/52/18
f 52/54/17 84/86/17 83/85/17 51/53/17
f 53/55/16 85/87/16 84/86/16 52/54/16
f 54/56/15 86/88/15 85/87/15 53/55/15
f 55/57/14 87/89/14 86/88/14 54/56/14
f 56/58/13 88/90/13 87/89/13 55/57/13
f 57/59/12 89/91/12 88/90/12 56/58/12
f 58/60/11 90/92/11 89/91/11 57/59/11
f 59/61/10 91/93/10 90/92/10 58/60/10
f 60/62/9 92/94/9 91/93/9 59/61/9
f 61/63/8 93/95/8 92/94/8 60/62/8
f 62/64/3 94/96/3 93/95/3 61/63/3
f 63/65/7 95/97/7 94/96/7 62/64/7
f 64/66/6 96/98/6 95/97/6 63/65/6
f 49/51/5 81/83/5 96/98/5 64/66/5
f 65/67/1 66/68/1 98/100/1 97/99/1
f 66/68/1 67/69/1 99/101/1 98/100/1
f 67/69/1 68/70/1 100/102/1 99/101/1
f 68/70/1 69/71/1 101/103/1 100/102/1
f 69/71/1 70/72/1 102/104/1 101/103/1
f 70/72/1 71/73/1 103/105/1 102/104/1
f 71/73/1 72/74/1 104/106/1 103/105/1
f 72/74/1 73/75/1 105/107/1 104/106/1
f 73/75/1 74/76/1 106/108/1 105/107/1
f 74/76/1 75/77/1 107/109/1 106/108/1
f 75/77/1 76/78/1 108/110/1 107/109/1
f 76/78/1 77/79/1 109/111/1 108/110/1
f 77/79/1 78/80/1 110/112/1 109/111/1
f 78/80/1 79/81/1 111/113/1 110/112/1
f 79/81/1 80/82/1 112/114/1 111/113/1
f 80/82/1 65/67/1 97/99/1 112/114/1
f 114/116/1 113/115/1 116/118/1 117/119/1 118/120/1 119/121/1 120/122/1 121/123/1 122/124/1 123/125/1 124/126/1 125/127/1 126/128/1 127/129/1 128/130/1 115/117/1
f 102/104/16 103/105/16 120/122/16 119/121/16
f 110/112/8 111/113/8 128/130/8 127/129/8
f 103/105/17 104/106/17 121/123/17 120/122/17
f 97/99/11 98/100/11 113/115/11 114/116/11
f 111/113/9 112/114/9 115/117/9 128/130/9
f 104/106/18 105/107/18 122/124/18 121/123/18
f 112/114/10 97/99/10 114/116/10 115/117/10
f 105/107/4 106/108/4 123/125/4 122/124/4
f 98/100/12 99/101/12 116/118/12 113/115/12
f 106/108/5 107/109/5 124/126/5 123/125/5
f 99/101/13 100/102/13 117/119/13 116/118/13
f 107/109/6 108/110/6 125/127/6 124/126/6
f 100/102/14 101/103/14 118/120/14 117/119/14
f 108/110/7 109/111/7 126/128/7 125/127/7
f 101/103/15 102/104/15 119/121/15 118/120/15
f 1/2/11 3/5/11 130/135/11 129/132/11
f 4/6/11 2/3/11 132/139/11 131/137/11
f 3/5/10 5/7/10 133/142/10 130/135/10
f 6/8/10 4/6/10 131/137/10 134/144/10
f 5/7/9 7/9/9 135/146/9 133/142/9
f 8/10/9 6/8/9 134/144/9 136/148/9
f 7/9/8 9/11/8 137/150/8 135/146/8
f 10/12/8 8/10/8 136/148/8 138/152/8
f 9/11/3 11/13/3 139/154/3 137/150/3
f 12/14/3 10/12/3 138/152/3 140/156/3
f 11/13/7 13/15/7 141/158/7 139/154/7
f 14/16/7 12/14/7 140/156/7 142/160/7
f 13/15/6 15/17/6 143/162/6 141/158/6
f 16/18/6 14/16/6 142/160/6 144/164/6
f 15/17/5 17/19/5 145/166/5 143/162/5
f 18/20/5 16/18/5 144/164/5 146/168/5
f 17/19/4 19/21/4 147/170/4 145/166/4
f 20/22/4 18/20/4 146/168/4 148/172/4
f 19/21/18 21/23/18 149/174/18 147/170/18
f 22/24/18 20/22/18 148/172/18 150/176/18
f 21/23/17 23/25/17 151/178/17 149/174/17
f 24/26/17 22/24/17 150/176/17 152/180/17
f 23/25/16 25/27/16 153/182/16 151/178/16
f 26/28/16 24/26/16 152/180/16 154/184/16
f 25/27/15 27/29/15 155/186/15 153/182/15
f 28/30/15 26/28/15 154/184/15 156/188/15
f 27/29/14 29/31/14 157/190/14 155/186/14
f 30/32/14 28/30/14 156/188/14 158/192/14
f 29/31/13 31/33/13 159/194/13 157/190/13
f 32/34/13 30/32/13 158/192/13 160/196/13
f 31/33/12 1/1/12 129/133/12 159/194/12
f 2/4/12 32/34/12 160/196/12 132/140/12
f 161/198/11 162/199/11 163/201/11 164/202/11
f 164/202/10 163/201/10 165/203/10 166/204/10
f 166/204/9 165/203/9 167/205/9 168/206/9
f 168/206/8 167/205/8 169/207/8 170/208/8
f 170/208/3 169/207/3 171/209/3 172/210/3
f 172/210/7 171/209/7 173/211/7 174/212/7
f 174/212/6 173/211/6 175/213/6 176/214/6
f 176/214/5 175/213/5 177/215/5 178/216/5
f 178/216/4 177/215/4 179/217/4 180/218/4
f 180/218/18 179/217/18 181/219/18 182/220/18
f 182/220/17 181/219/17 183/221/17 184/222/17
f 184/222/16 183/221/16 185/223/16 186/224/16
f 186/224/15 185/223/15 187/225/15 188/226/15
f 188/226/14 187/225/14 189/227/14 190/228/14
f 190/228/13 189/227/13 191/229/13 192/230/13
f 192/230/12 191/229/12 162/200/12 161/197/12
f 23/25/1 21/23/1 182/220/1 184/222/1
f 8/10/2 10/12/2 169/207/2 167/205/2
f 22/24/2 24/26/2 183/221/2 181/219/2
f 11/13/1 9/11/1 170/208/1 172/210/1
f 25/27/1 23/25/1 184/222/1 186/224/1
f 10/12/2 12/14/2 171/209/2 169/207/2
f 24/26/2 26/28/2 185/223/2 183/221/2
f 13/15/1 11/13/1 172/210/1 174/212/1
f 27/29/1 25/27/1 186/224/1 188/226/1
f 12/14/2 14/16/2 173/211/2 171/209/2
f 26/28/2 28/30/2 187/225/2 185/223/2
f 15/17/1 13/15/1 174/212/1 176/214/1
f 29/31/1 27/29/1 188/226/1 190/228/1
f 14/16/2 16/18/2 175/213/2 173/211/2
f 3/5/1 1/2/1 161/198/1 164/202/1
f 28/30/2 30/32/2 189/227/2 187/225/2
